<?xml version="1.0" ?><svg id="Layer_1" style="enable-background:new 0 0 32 32;" version="1.1" viewBox="0 0 32 32" xml:space="preserve" xmlns="http://www.w3.org/2000/svg" xmlns:xlink="http://www.w3.org/1999/xlink"><style type="text/css">
	.st0{fill:#414042;}
</style><g><path class="st0" d="M19,12h-4c0,1.1,0.9,2,2,2S19,13.1,19,12z"/><path class="st0" d="M15,21.5V22h4v-0.5c0-1.1-0.9-2-2-2S15,20.4,15,21.5z"/><path class="st0" d="M11.5,23c-0.28,0-0.5,0.22-0.5,0.5s0.22,0.5,0.5,0.5h11c0.28,0,0.5-0.22,0.5-0.5S22.78,23,22.5,23h-1h-2h-5h-2   H11.5z"/><path class="st0" d="M22,20.29V22h0.5c0.83,0,1.5,0.67,1.5,1.5S23.33,25,22.5,25h-11c-0.83,0-1.5-0.67-1.5-1.5s0.67-1.5,1.5-1.5H12   v-2c0-1.6,0.76-3.07,2.03-4C12.76,15.07,12,13.6,12,12v-2h-0.5C10.67,10,10,9.33,10,8.5S10.67,7,11.5,7h6V0.5   C17.5,0.22,17.28,0,17,0C8.18,0,1,7.18,1,16s7.18,16,16,16c4.27,0,8.29-1.66,11.31-4.69c0.2-0.2,0.2-0.51,0-0.71L22,20.29z"/><path class="st0" d="M15.2,16.45C13.84,17.14,13,18.5,13,20v2h1v-0.5c0-1.48,1.08-2.71,2.5-2.95v-3.6C15.08,14.71,14,13.48,14,12   v-0.5c0-0.28,0.22-0.5,0.5-0.5h5c0.28,0,0.5,0.22,0.5,0.5V12c0,1.48-1.08,2.71-2.5,2.95v3.6c1.42,0.24,2.5,1.47,2.5,2.95V22h1v-2   c0-1.5-0.84-2.86-2.2-3.55c-0.17-0.09-0.27-0.26-0.27-0.45c0-0.19,0.11-0.36,0.27-0.45C20.16,14.86,21,13.5,21,12v-2h-8v2   c0,1.5,0.84,2.86,2.2,3.55c0.17,0.09,0.27,0.26,0.27,0.45C15.48,16.19,15.37,16.36,15.2,16.45z"/><path class="st0" d="M22.5,9C22.78,9,23,8.78,23,8.5S22.78,8,22.5,8h-11C11.22,8,11,8.22,11,8.5S11.22,9,11.5,9h1h9H22.5z"/><path class="st0" d="M24,8.5c0,0.83-0.67,1.5-1.5,1.5H22v2c0,1.6-0.76,3.07-2.03,4c0.91,0.67,1.56,1.62,1.85,2.7l6.08,6.08   C29.91,22.3,31,19.23,31,16c0-7.21-5.48-13.17-12.5-13.92V7h4C23.33,7,24,7.67,24,8.5z M27.81,12.02c0.26-0.09,0.54,0.06,0.63,0.32   C28.81,13.53,29,14.75,29,16c0,2-0.5,3.99-1.46,5.74C27.45,21.91,27.28,22,27.1,22c-0.08,0-0.16-0.02-0.24-0.06   c-0.24-0.13-0.33-0.44-0.2-0.68C27.54,19.66,28,17.84,28,16c0-1.14-0.17-2.27-0.52-3.35C27.4,12.39,27.54,12.11,27.81,12.02z    M25.16,7.89c0.2-0.19,0.52-0.17,0.71,0.03c0.51,0.56,0.97,1.17,1.37,1.82c0.14,0.24,0.07,0.54-0.16,0.69   c-0.08,0.05-0.17,0.07-0.26,0.07c-0.17,0-0.33-0.08-0.43-0.24c-0.36-0.59-0.79-1.15-1.25-1.67C24.95,8.39,24.96,8.07,25.16,7.89z    M22.26,6.33c-0.9-0.49-1.86-0.85-2.86-1.07c-0.27-0.06-0.44-0.33-0.38-0.6c0.06-0.27,0.33-0.44,0.6-0.38   c1.09,0.24,2.14,0.64,3.13,1.17c0.24,0.13,0.33,0.44,0.2,0.68C22.84,6.3,22.67,6.4,22.5,6.4C22.41,6.4,22.33,6.38,22.26,6.33z"/></g></svg>