<?xml version="1.0" ?><!DOCTYPE svg  PUBLIC '-//W3C//DTD SVG 1.1//EN'  'http://www.w3.org/Graphics/SVG/1.1/DTD/svg11.dtd'><svg enable-background="new 0 0 129 129" id="Layer_1" version="1.1" viewBox="0 0 129 129" xml:space="preserve" xmlns="http://www.w3.org/2000/svg" xmlns:xlink="http://www.w3.org/1999/xlink"><g><g><path d="M126.7,77c2.3,1.3,2.3,3.5,0,4.9l-57.8,33.6c-2.3,1.3-6.1,1.3-8.4,0L2.3,81.9c-2.3-1.3-2.3-3.5,0-4.9    l57.8-33.6c2.3-1.3,6.1-1.3,8.4,0L126.7,77z" fill="#C8C8C8"/></g><path d="M65.7,11.6L49.9,2.4l0,0c-5.2-3-12.4-2.6-20.3,2C13.8,13.5,1.1,35.6,1.2,53.7c0,9,3.2,15.3,8.3,18.3l0,0   l16,9.3l-4-7.9c2.6-0.6,5.5-1.7,8.4-3.4c15.8-9.1,28.5-31.2,28.4-49.3c0-2.4-0.2-4.6-0.7-6.7L65.7,11.6z" fill="#1E6FAD"/><g enable-background="new    "><defs><path d="M128.5,79.5l0,12c0,0.9-0.6,1.8-1.7,2.4l0-12     C127.9,81.2,128.5,80.4,128.5,79.5z" enable-background="new    " id="SVGID_109_"/></defs><clipPath id="SVGID_2_"><use overflow="visible" xlink:href="#SVGID_109_"/></clipPath><g clip-path="url(#SVGID_2_)" enable-background="new    "><path d="M128.5,79.5l0,12c0,0,0,0,0,0.1L128.5,79.5C128.5,79.5,128.5,79.5,128.5,79.5" fill="#747474"/><path d="M128.5,79.5l0,12c0,0.1,0,0.2,0,0.3l0-12C128.5,79.8,128.5,79.7,128.5,79.5" fill="#787878"/><path d="M128.5,79.9l0,12c0,0.1-0.1,0.2-0.1,0.3l0-12C128.4,80.1,128.4,80,128.5,79.9" fill="#7C7C7C"/><path d="M128.4,80.2l0,12c0,0.1-0.1,0.2-0.2,0.3l0-12C128.3,80.4,128.3,80.3,128.4,80.2" fill="#808080"/><path d="M128.2,80.6l0,12c-0.1,0.1-0.1,0.2-0.2,0.4l0-12C128.1,80.8,128.1,80.7,128.2,80.6" fill="#848484"/><path d="M128,80.9l0,12c-0.1,0.1-0.2,0.3-0.4,0.4l0-12C127.7,81.2,127.9,81,128,80.9" fill="#888888"/><path d="M127.6,81.3l0,12c-0.2,0.2-0.5,0.4-0.8,0.6l0-12C127.1,81.7,127.4,81.5,127.6,81.3" fill="#8C8C8C"/><path d="M126.8,81.9l0,12c0,0,0,0-0.1,0L126.8,81.9C126.8,81.9,126.8,81.9,126.8,81.9" fill="#909090"/></g></g><g enable-background="new    "><defs><path d="M0.5,91.4l0-12c0,0.9,0.6,1.8,1.8,2.5l0,12C1.1,93.2,0.5,92.3,0.5,91.4z" enable-background="new    " id="SVGID_111_"/></defs><clipPath id="SVGID_4_"><use overflow="visible" xlink:href="#SVGID_111_"/></clipPath><g clip-path="url(#SVGID_4_)" enable-background="new    "><path d="M2.3,81.9l0,12c-1.2-0.7-1.8-1.6-1.8-2.5l0-12C0.5,80.3,1.1,81.2,2.3,81.9" fill="#686868"/></g></g><g><polygon fill="#9A9A9A" points="126.8,81.9 126.7,93.9 68.9,127.5 68.9,115.5   "/></g><g><polygon fill="#6B6B6B" points="60.5,115.5 60.5,127.5 2.3,93.9 2.3,81.9   "/></g><g enable-background="new    "><defs><path d="M68.9,115.5l0,12c-2.3,1.3-6.1,1.3-8.4,0l0-12     C62.8,116.9,66.6,116.9,68.9,115.5z" enable-background="new    " id="SVGID_113_"/></defs><clipPath id="SVGID_6_"><use overflow="visible" xlink:href="#SVGID_113_"/></clipPath><g clip-path="url(#SVGID_6_)" enable-background="new    "><path d="M68.9,115.5l0,12c-0.4,0.2-0.8,0.4-1.3,0.6l0-12C68.1,115.9,68.5,115.7,68.9,115.5" fill="#909090"/><path d="M67.6,116.1l0,12c-0.4,0.1-0.7,0.2-1.1,0.3l0-12C66.9,116.3,67.3,116.2,67.6,116.1" fill="#8C8C8C"/><path d="M66.5,116.4l0,12c-0.3,0-0.5,0.1-0.8,0.1l0-12C66,116.5,66.2,116.4,66.5,116.4" fill="#888888"/><path d="M65.7,116.5l0,12c-0.2,0-0.4,0-0.7,0l0-12C65.3,116.5,65.5,116.5,65.7,116.5" fill="#848484"/><path d="M65.1,116.5l0,12c-0.2,0-0.4,0-0.6,0l0-12C64.7,116.5,64.9,116.5,65.1,116.5" fill="#808080"/><path d="M64.5,116.5l0,12c-0.2,0-0.4,0-0.6,0l0-12C64.1,116.5,64.3,116.5,64.5,116.5" fill="#7C7C7C"/><path d="M63.9,116.5l0,12c-0.2,0-0.4,0-0.6-0.1l0-12C63.5,116.5,63.7,116.5,63.9,116.5" fill="#787878"/><path d="M63.3,116.4l0,12c-0.2,0-0.4-0.1-0.6-0.1l0-12C62.9,116.4,63.1,116.4,63.3,116.4" fill="#747474"/><path d="M62.7,116.3l0,12c-0.2,0-0.4-0.1-0.6-0.2l0-12C62.3,116.2,62.5,116.3,62.7,116.3" fill="#707070"/><path d="M62.1,116.2l0,12c-0.2-0.1-0.5-0.2-0.7-0.2l0-12C61.6,116,61.8,116.1,62.1,116.2" fill="#6C6C6C"/><path d="M61.4,115.9l0,12c-0.3-0.1-0.6-0.3-0.9-0.4l0-12C60.8,115.7,61.1,115.8,61.4,115.9" fill="#686868"/></g></g><g><polygon fill="#E55177" points="46.8,23.2 46.9,47.2 33,55.2 33,52.4 44.4,45.8 44.4,24.6   "/></g><g><path d="M45.6,13.7C61.3,4.6,74.1,11.9,74.2,30c0.1,18.1-12.7,40.2-28.4,49.3C30,88.4,17.2,81.1,17.1,63    C17.1,44.9,29.8,22.8,45.6,13.7z M45.7,73.3C58.6,65.9,69,47.8,69,33c0-14.8-10.5-20.8-23.4-13.3C32.7,27.1,22.3,45.1,22.3,60    C22.4,74.8,32.8,80.7,45.7,73.3" fill="#6BB0E7"/></g><g><path d="M45.6,19.7C58.5,12.2,68.9,18.2,69,33c0,14.8-10.4,32.8-23.3,40.3C32.8,80.7,22.4,74.8,22.3,60    C22.3,45.1,32.7,27.1,45.6,19.7z M46.9,47.2l-0.1-23.9l-2.4,1.4l0.1,21.2L33,52.4l0,2.8L46.9,47.2" fill="#F7F7F7"/></g><g><polygon fill="#E55177" points="100.8,72.4 84.8,63.2 84.7,20.7 100.7,30   "/></g><g><polygon fill="#F4739E" points="100.7,30 84.7,20.7 93.3,15.8 109.2,25.1   "/></g><g><polygon fill="#EA5E86" points="109.2,25.1 109.4,67.5 100.8,72.4 100.7,30   "/></g><g><polygon fill="#7E8896" points="88.2,79.7 72.3,70.4 72.2,38.8 88.1,48   "/></g><g><polygon fill="#F7F7F7" points="88.1,48 72.2,38.8 80.7,33.8 96.7,43.1   "/></g><g><polygon fill="#D6D6D6" points="96.7,43.1 96.8,74.8 88.2,79.7 88.1,48   "/></g><g><polygon fill="#5DA6D8" points="75.6,87 59.7,77.7 59.6,54.9 75.6,64.2   "/></g><g><polygon fill="#9FD9F1" points="75.6,64.2 59.6,54.9 68.2,50 84.1,59.3   "/></g><g><polygon fill="#6BB0E7" points="84.1,59.3 84.2,82 75.6,87 75.6,64.2   "/></g><g><polygon fill="#18969C" points="63.1,94.2 47.1,85 47,69.1 63,78.4   "/></g><g><polygon fill="#47BFB6" points="63,78.4 47,69.1 55.6,64.2 71.6,73.5   "/></g><g><polygon fill="#34AFAA" points="71.6,73.5 71.6,89.3 63.1,94.2 63,78.4   "/></g><g><polygon fill="#EDA054" points="50.5,101.5 34.5,92.2 34.5,80.9 50.4,90.1   "/></g><g><polygon fill="#FFDF94" points="50.4,90.1 34.5,80.9 43.1,75.9 59,85.2   "/></g><g><polygon fill="#FAB262" points="59,85.2 59,96.6 50.5,101.5 50.4,90.1   "/></g></g></svg>