<?xml version="1.0" ?><!DOCTYPE svg  PUBLIC '-//W3C//DTD SVG 1.1//EN'  'http://www.w3.org/Graphics/SVG/1.1/DTD/svg11.dtd'><svg id="Layer_2" style="enable-background:new 0 0 64 64;" version="1.1" viewBox="0 0 64 64" xml:space="preserve" xmlns="http://www.w3.org/2000/svg" xmlns:xlink="http://www.w3.org/1999/xlink"><style type="text/css">
	.st0{fill:#EDEFF1;}
	.st1{fill:#D3D3D3;}
	.st2{fill:#98CA69;}
	.st3{fill:#80D6FB;}
	.st4{fill:#FFB0AA;}
	.st5{fill:#FFE352;}
	.st6{fill:#6E83B7;}
	.st7{fill:#466089;}
	.st8{fill:#FFD3B3;}
	.st9{fill:#FCB98B;}
	.st10{fill:#FFB236;}
	.st11{fill:#46BEE8;}
	.st12{fill:#E0E2FF;}
	.st13{fill:#8FA5D1;}
	.st14{fill:#75AA40;}
</style><g><g><g><path class="st0" d="M48,2H6C3.791,2,2,3.791,2,6v42c0,2.209,1.791,4,4,4h42c2.209,0,4-1.791,4-4V6C52,3.791,50.209,2,48,2z"/></g><g><path class="st6" d="M52,12H2V6c0-2.209,1.791-4,4-4h42c2.209,0,4,1.791,4,4V12z"/></g><g><circle class="st4" cx="9" cy="7" r="2"/></g><g><circle class="st5" cx="15" cy="7" r="2"/></g><g><circle class="st2" cx="21" cy="7" r="2"/></g></g><g><g><polygon class="st6" points="46,15 36,25 32,19 20,32 16,28 8,36 8,40 16,32 20,36 32,23 36,29 46,19    "/></g><g><rect class="st2" height="7.125" width="6" x="8" y="42"/></g><g><rect class="st4" height="10" width="6" x="16" y="39"/></g><g><rect class="st4" height="17" width="6" x="32" y="32"/></g><g><rect class="st2" height="14" width="6" x="24" y="35"/></g><g><rect class="st2" height="20" width="6" x="40" y="29"/></g></g><g><g><circle class="st3" cx="49" cy="49" r="13"/></g><g><circle class="st0" cx="49" cy="49" r="11"/></g><path class="st6" d="M54,44l-4.572,3.048C49.29,47.018,49.147,47,49,47c-1.105,0-2,0.895-2,2c0,1.105,0.895,2,2,2s2-0.895,2-2    c0-0.147-0.018-0.29-0.048-0.428L54,44z"/><g><rect class="st6" height="2" width="2" x="48" y="38"/></g><g><rect class="st6" height="2" transform="matrix(0.4999 0.8661 -0.8661 0.4999 66.942 -27.9345)" width="2" x="56.66" y="43"/></g><g><rect class="st6" height="2" transform="matrix(0.8661 0.4999 -0.4999 0.8661 27.3987 -21.5931)" width="2" x="53" y="39.34"/></g><g><rect class="st6" height="2" width="2" x="58" y="48"/></g></g></g></svg>