<?xml version="1.0" ?><svg style="enable-background:new 0 0 7348.542 6924.424;" version="1.1" viewBox="0 0 7348.542 6924.424" xml:space="preserve" xmlns="http://www.w3.org/2000/svg" xmlns:xlink="http://www.w3.org/1999/xlink"><g id="_x33_7-Report"><g><rect height="1664.732" style="fill:#0092FF;" width="645.801" x="3272.439" y="5259.692"/><g><polygon points="2267.86,6924.424 1622.058,6924.424 2440.073,5259.692 3085.875,5259.692    " style="fill:#0092FF;"/><polygon points="4908.469,6924.424 5554.27,6924.424 4736.255,5259.692 4090.454,5259.692    " style="fill:#0092FF;"/></g><g><polygon points="2267.86,6924.424 1622.058,6924.424 2440.073,5259.692 3085.875,5259.692    " style="fill:#0092FF;"/></g><rect height="5049.949" style="fill:#545B66;" width="7175.258" x="86.642" y="478.891"/><rect height="4752.105" style="fill:#FFFFFF;" width="6802.099" x="273.222" y="573.569"/><linearGradient gradientUnits="userSpaceOnUse" id="SVGID_1_" x1="0" x2="7348.5425" y1="286.7843" y2="286.7843"><stop offset="0" style="stop-color:#007BFF"/><stop offset="0.4632" style="stop-color:#006BFF"/><stop offset="1" style="stop-color:#0053FF"/></linearGradient><rect height="573.569" style="fill:url(#SVGID_1_);" width="7348.542" y="0"/><rect height="2008.407" style="fill:#0092FF;" width="773.451" x="866.946" y="2215.915"/><rect height="1004.204" style="fill:#0062FF;" width="773.451" x="866.946" y="3220.118"/><rect height="2796.384" style="fill:#FF6700;" width="773.451" x="1903.17" y="1427.938"/><rect height="1381.899" style="fill:#E84D00;" width="773.451" x="1903.17" y="2842.423"/><rect height="1702.951" style="fill:#12D87E;" width="773.451" x="2976.301" y="2521.371"/><rect height="851.475" style="fill:#19BF70;" width="773.451" x="2976.301" y="3372.847"/><path d="M5824.985,2929.401c3.59,18.629,15.151,35.845,34.526,45.975    c215.467,111.722,363.581,337.051,363.581,595.266v299.688c0,117.49-96.146,213.602-213.603,213.602h-912.985    c-117.456,0-213.603-96.112-213.603-213.602v-299.688c0-258.215,148.019-483.544,363.485-595.266    c18.456-9.592,29.843-25.715,33.98-43.364c6.531-27.779-4.779-59.053-33.98-74.196c-3.833-1.969-7.693-4.033-11.552-6.271    c-209.206-113.527-351.934-335.36-351.934-589.004v-299.619c0-117.551,96.146-213.663,213.603-213.663h912.985    c117.456,0,213.603,96.112,213.603,213.663v299.619c0,258.319-148.114,483.543-363.581,595.275    c-3.426,1.795-6.54,3.695-9.418,5.828C5828.784,2879.602,5820.346,2905.585,5824.985,2929.401L5824.985,2929.401z" style="fill:#EBF2FF;"/><linearGradient gradientUnits="userSpaceOnUse" id="SVGID_2_" x1="4882.9028" x2="6223.0928" y1="2916.5957" y2="2916.5957"><stop offset="0" style="stop-color:#C8D6E8"/><stop offset="0.9987" style="stop-color:#EBF2FF"/></linearGradient><path d="M5824.985,2929.401c3.59,18.629,15.151,35.845,34.526,45.975    c215.467,111.722,363.581,337.051,363.581,595.266v299.688c0,117.49-96.146,213.602-213.603,213.602h-912.985    c-117.456,0-213.603-96.112-213.603-213.602v-299.688c0-258.215,148.019-483.544,363.485-595.266    c18.456-9.592,29.843-25.715,33.98-43.364c6.531-27.779-4.779-59.053-33.98-74.196c-3.833-1.969-7.693-4.033-11.552-6.271    c-209.206-113.527-351.934-335.36-351.934-589.004v-299.619c0-117.551,96.146-213.663,213.603-213.663h912.985    c117.456,0,213.603,96.112,213.603,213.663v299.619c0,258.319-148.114,483.543-363.581,595.275    c-3.426,1.795-6.54,3.695-9.418,5.828C5828.784,2879.602,5820.346,2905.585,5824.985,2929.401L5824.985,2929.401z" style="fill:url(#SVGID_2_);"/><path d="M6212.59,2380.543c-37.267,207.67-171.218,382.921-353.078,477.273    c-3.426,1.795-6.54,3.695-9.418,5.828l-261.71,139.676c-10.667,5.663-22.497,8.603-34.483,8.603    c-12.099,0-23.919-2.94-34.492-8.603l-284.571-151.774c-176.067-95.496-304.979-267.703-341.465-471.002H6212.59z" style="fill:#F4BA73;"/><path d="M6118.343,3901.977H4946.258c58.307-66.78,129.892-135.859,205.441-195.311    c61.62-48.585,133.032-96.685,212.241-136.189c113.631-56.712,247.479-56.174,359.921,2.775    C5843.38,3635.861,6002.136,3741.496,6118.343,3901.977L6118.343,3901.977z" style="fill:#F4BA73;"/><path d="M6439.097,1776.492c0,49.531-20.329,94.69-52.947,127.386    c-32.801,32.723-77.855,52.948-127.49,52.948H4847.231c-99.26,0-180.437-81.169-180.437-180.334    c0-49.626,20.26-94.724,53.06-127.516c32.583-32.593,77.743-52.948,127.377-52.948H6258.66    C6357.929,1596.028,6439.097,1677.197,6439.097,1776.492L6439.097,1776.492z" style="fill:#282D35;"/><path d="M6439.097,4056.795c0,49.634-20.329,94.689-52.947,127.412    c-32.801,32.697-77.855,53.026-127.49,53.026H4847.231c-99.26,0-180.437-81.238-180.437-180.438    c0-49.635,20.26-94.794,53.06-127.412c32.583-32.8,77.743-53.025,127.377-53.025H6258.66c79.208,0,146.83,51.603,170.949,122.91    C6435.776,4017.36,6439.097,4036.744,6439.097,4056.795L6439.097,4056.795z" style="fill:#282D35;"/></g></g><g id="Layer_1"/></svg>